<svg width="167" height="68" viewBox="0 0 167 68" fill="none" xmlns="http://www.w3.org/2000/svg">
<g clip-path="url(#clip0_4056_4811)">
<path d="M13.4443 22.8045C13.4443 16.3269 18.369 12.5557 24.3604 12.5557C29.4458 12.5557 32.3539 15.3508 32.3539 17.9832C32.3539 19.3734 31.5647 20.7192 29.6942 20.7192C27.9407 20.7192 27.1515 19.5065 27.0639 18.0868C26.9323 15.9276 25.9679 13.7979 23.3375 13.7979C20.3272 13.7979 18.632 16.5931 18.6905 20.8819C18.7197 27.2264 22.6068 30.3765 26.5086 30.3765C28.043 30.3765 29.8696 29.9032 31.4917 28.0546L32.3392 28.7497C31.5209 30.2729 28.949 33.0976 24.1266 33.0976C18.5151 33.0976 13.4589 29.356 13.4589 22.8045H13.4443Z" fill="#012436"/>
<path d="M34.21 25.4955C34.21 20.482 38.0094 18.1602 41.8088 18.1602C45.6083 18.1602 49.4662 20.6003 49.4662 25.6286C49.4662 30.6569 45.6667 32.964 41.8673 32.964C38.0679 32.964 34.21 30.5238 34.21 25.5103V25.4955ZM42.4226 31.633C43.8693 31.633 44.9361 30.302 44.9361 26.9301C44.9361 22.9962 43.5186 19.506 41.2389 19.506C39.763 19.506 38.7254 20.837 38.7254 24.1793C38.7254 28.1428 40.2014 31.6478 42.4226 31.6478V31.633Z" fill="#012436"/>
<path d="M59.4174 18.1602C55.5595 18.1602 51.4824 20.5708 51.4824 25.6286C51.4824 30.0062 54.595 32.4464 58.0145 32.89C58.3653 32.1506 58.8767 31.4111 59.6658 30.7161C59.7827 30.6125 59.9143 30.509 60.0458 30.4351C57.6346 29.7843 55.9979 27.3737 55.9979 23.9722C55.9979 21.5025 56.9185 19.506 59.1105 19.506C61.1125 19.506 61.1856 21.2067 61.3317 22.3898C61.4633 23.2476 61.9017 24.3863 63.4068 24.3863C64.912 24.3863 65.3796 23.3659 65.3796 22.3602C65.3796 20.201 62.9392 18.1602 59.4174 18.1602Z" fill="#012436"/>
<path d="M81.7901 29.8442L77.4938 23.4702L79.7443 21.5032C80.9718 20.4236 81.9216 19.6546 83.5145 19.5658V18.4567H76.544V19.5658C78.2391 19.6546 78.4583 20.8081 77.8007 21.3701L74.2643 24.4167C73.7236 24.8899 73.066 24.5498 73.066 23.5885V13.2066C73.066 12.2896 72.5692 11.846 71.5609 12.0086L66.8262 12.8664V13.9756C68.1121 13.8869 68.8282 14.1678 68.8282 15.6615V29.2822C69.0912 29.3266 69.3396 29.3858 69.5881 29.4449C69.9242 29.3858 70.2311 29.3414 70.5233 29.3118C70.9179 29.2675 71.2978 29.2527 71.6339 29.2527C72.1746 29.2527 72.6422 29.297 73.066 29.4006V28.5132C73.066 27.2118 73.3875 26.2357 74.0743 26.2357C74.4543 26.2357 74.7027 26.5463 74.8927 26.8716L76.9239 30.0069C77.3331 30.6428 77.4646 31.5006 76.3248 31.6633V32.7725H84.742V31.6633C83.1345 31.5006 82.4769 30.8943 81.7901 29.8442Z" fill="#012436"/>
<path d="M93.6418 18.4567C92.0782 18.4567 91.7567 18.2645 91.7567 17.599L91.8005 15.5581C91.8005 15.144 91.5375 14.8926 91.1722 14.8926H90.6607C90.2808 14.8926 90.0616 15.0257 89.8424 15.3658C88.8487 17.0814 87.6211 18.2645 85.21 18.8708V19.8469H86.6421C87.2704 19.8469 87.5335 20.0392 87.5335 21.0892V28.4245C87.5335 30.7316 88.5272 32.1514 90.2077 32.6838C90.6461 32.0183 91.0991 31.338 91.5521 30.6429C91.5813 30.5985 91.6398 30.495 91.6982 30.3915C91.7713 30.2436 91.8444 30.1105 91.932 29.9774C91.7859 29.5041 91.7567 28.9126 91.7567 28.2323V21.1483C91.7567 20.0983 92.0782 19.7878 93.6418 19.9061L95.7461 20.0392V18.4567H93.6418Z" fill="#012436"/>
<path d="M110.988 29.7548V24.1645C110.988 19.4024 109.205 18.1602 105.508 18.1602C101.811 18.1602 98.3767 19.3433 98.3767 21.7835C98.3767 22.8631 99.0343 23.7504 100.423 23.7504C103.871 23.7504 101.139 19.432 104.587 19.432C106.122 19.432 106.75 20.482 106.75 22.7743V23.218C106.75 24.1054 106.502 24.3272 105.464 24.4899C99.6919 25.4068 97.4707 26.8709 97.4707 29.4738C97.4707 29.6512 97.4853 29.8139 97.4999 29.9618C97.5292 30.0801 97.5438 30.2132 97.5584 30.3315C97.9676 32.1802 99.7065 32.964 101.577 32.964C103.959 32.964 105.464 31.6921 106.224 30.6717C106.531 30.3315 106.794 30.3907 106.852 30.8048C107.013 31.7809 107.758 32.964 109.775 32.964C110.798 32.964 111.748 32.7126 112.215 31.7809V31.1449C111.236 31.4703 110.988 30.8344 110.988 29.7548ZM106.75 27.211C106.75 29.1188 105.508 30.5829 103.711 30.5829C102.337 30.5829 101.767 29.6956 101.767 28.6456C101.767 27.5068 102.454 25.9392 105.508 25.7174C106.472 25.6286 106.75 25.88 106.75 26.6047V27.211Z" fill="#012436"/>
<path d="M115.941 29.5038V21.8579C115.941 20.3938 115.225 20.0832 113.969 20.2015V19.0628L118.674 18.2346C119.682 18.0719 120.179 18.5156 120.179 19.4029V29.5038C120.179 31.0863 120.72 31.5743 122.123 31.663V32.7722H113.939V31.663C115.415 31.5743 115.941 31.0863 115.941 29.5038ZM117.695 11.5352C118.981 11.5352 120.106 12.5852 120.106 13.9753C120.106 15.3655 118.981 16.4451 117.695 16.4451C116.321 16.4451 115.211 15.3951 115.211 13.9753C115.211 12.5556 116.307 11.5352 117.695 11.5352Z" fill="#012436"/>
<path d="M124.607 29.7555V15.6615C124.607 14.1678 123.891 13.8868 122.605 13.9756V12.8664L127.34 12.0086C128.348 11.8459 128.845 12.2896 128.845 13.2213V29.7702C128.845 30.8498 129.313 31.4266 130.234 31.0717V31.7372C129.795 32.6541 128.699 32.9795 127.72 32.9795C125.937 32.9795 124.622 31.959 124.622 29.7702L124.607 29.7555Z" fill="#012436"/>
<path d="M132.936 18.1313L132.337 14.1974C132.089 12.5411 132.907 11.8164 134.252 11.8164C135.596 11.8164 136.356 12.5411 136.107 14.1974L135.508 18.1313C135.377 18.7377 135.011 18.9891 134.252 18.9891C133.492 18.9891 133.053 18.7377 132.936 18.1313Z" fill="#012436"/>
<path d="M138.022 31.5303C137.204 29.8148 137.116 27.8182 138.373 27.8182C138.84 27.8182 139.162 28.0401 139.308 28.5429C140.053 30.8648 141.383 31.693 143.107 31.693C145.27 31.693 145.709 30.5542 145.709 29.6964C145.709 28.5577 144.671 28.114 142.669 27.5372C140.039 26.7386 137.554 25.4668 137.554 22.5829C137.554 19.6991 140.214 18.1758 143.458 18.1758C145.402 18.1758 147.228 18.723 148.324 19.5364C149.143 21.2815 149.23 23.2484 147.974 23.2484C147.506 23.2484 147.184 22.997 147.038 22.5238C146.278 20.1723 144.905 19.3885 143.37 19.3885C141.924 19.3885 141.325 20.1131 141.325 21.1632C141.325 22.435 142.45 23.1597 143.809 23.5442C146.059 24.2097 149.581 25.0675 149.581 28.395C149.581 31.4711 146.381 32.9648 142.99 32.9648C140.915 32.9648 139.133 32.3585 138.037 31.5303H138.022Z" fill="#012436"/>
<path d="M166.912 43.6863C166.825 43.5976 166.708 43.4941 166.532 43.3758C166.372 43.2427 166.196 43.1835 166.035 43.1835C165.568 43.1835 165.129 43.3166 164.72 43.568C163.931 43.9969 163.157 44.411 162.397 44.8399C161.637 45.2688 160.862 45.6829 160.073 46.1117C159.912 46.2448 159.737 46.3484 159.576 46.4223C159.416 46.511 159.182 46.6146 158.89 46.7329C159.021 46.4371 159.109 46.2301 159.167 46.097C159.226 45.9639 159.299 45.8603 159.386 45.7864C159.854 44.8103 160.322 43.8638 160.833 42.9321C161.345 42.0004 161.812 41.0687 162.28 40.137C162.821 39.0722 162.806 38.3771 162.221 38.0369C161.798 37.8299 161.447 37.8003 161.155 37.9482C160.862 38.0961 160.585 38.3031 160.336 38.5545C159.62 39.1461 158.948 39.7229 158.32 40.2701C157.691 40.8173 157.019 41.3793 156.303 41.9264C155.762 42.311 155.207 42.6659 154.666 43.006C154.126 43.3462 153.556 43.6863 152.971 44.0265C152.767 44.1152 152.547 44.1596 152.314 44.1596C152.08 44.1596 151.802 44.204 151.466 44.2927C151.627 43.9525 151.744 43.6568 151.817 43.4053C151.875 43.1539 151.948 42.9173 152.036 42.7103C152.416 42.03 152.796 41.3792 153.161 40.7433C153.541 40.1074 153.892 39.4271 154.228 38.7024C154.389 38.5398 154.506 38.3475 154.579 38.1552C154.637 37.963 154.71 37.7855 154.798 37.608C154.462 37.2679 154.169 37.1496 153.921 37.2531C153.673 37.3566 153.439 37.5341 153.234 37.8003C152.854 38.3475 152.489 38.8947 152.138 39.4567C151.788 40.0039 151.437 40.5806 151.101 41.1722C150.896 41.5567 150.706 41.9412 150.531 42.311C150.37 42.6955 150.224 43.0948 150.092 43.5237C149.99 43.9525 149.975 44.3223 150.034 44.6476C148.996 45.0026 147.915 45.2836 146.761 45.4758C145.562 45.6681 144.452 45.7568 143.4 45.7272C142.347 45.7124 141.617 45.4906 141.208 45.0617C140.915 44.7659 140.798 44.4849 140.857 44.204C140.915 43.923 141.266 43.7899 141.894 43.7899C142.318 43.7899 142.727 43.7751 143.151 43.7307C143.575 43.6863 143.969 43.6272 144.349 43.5385C144.846 43.3758 145.328 43.1835 145.796 42.9913C146.249 42.799 146.702 42.5772 147.111 42.3258C147.696 41.9856 147.93 41.4828 147.798 40.8025C147.667 40.1665 147.257 39.8116 146.541 39.7229C145.781 39.7229 145.007 39.7968 144.189 39.9447C143.37 40.0926 142.581 40.344 141.836 40.6694C141.12 41.0539 140.638 41.4088 140.389 41.749C140.185 42.03 139.965 42.518 139.732 43.1244C139.659 43.1244 139.585 43.0948 139.512 43.0948C139.089 43.1391 138.636 43.3018 138.124 43.5976C136.911 44.3223 135.713 44.8843 134.544 45.3131C133.375 45.742 132.177 46.2301 130.964 46.7772C130.496 46.3927 130.043 45.9786 129.575 45.535C129.108 45.0913 128.684 44.6476 128.26 44.2335C127.003 42.9913 128.319 40.5363 129.795 40.2997C130.584 40.0482 131.139 40.0482 131.475 40.2849C131.811 40.5215 131.972 40.8468 131.957 41.2461C131.957 41.6602 131.797 42.1039 131.49 42.5772C131.183 43.0504 130.803 43.4201 130.35 43.7159C130.379 43.8047 130.394 43.8786 130.423 43.923C130.452 43.9821 130.481 44.0413 130.496 44.1448C130.993 44.0413 131.402 43.9378 131.738 43.8194C132.06 43.7011 132.44 43.4793 132.863 43.1391C133.273 42.8434 133.594 42.4884 133.828 42.0595C134.062 41.6307 134.106 41.1722 133.959 40.6546C133.813 39.6637 133.068 39.1165 131.767 39.013C130.715 38.8947 129.707 38.9538 128.772 39.2792C126.258 40.1222 125.805 42.3405 125.805 43.006C125.805 43.0356 125.82 43.08 125.82 43.1096C125.791 43.1096 125.761 43.1096 125.732 43.1096C125.308 43.1539 124.855 43.3166 124.344 43.6124C123.131 44.3371 121.933 44.899 120.764 45.3279C119.595 45.7568 118.396 46.2448 117.183 46.792C116.234 46.3336 114.641 44.9286 114.012 43.568C113.822 43.1687 113.983 42.6955 114.173 42.2962C114.465 41.675 114.918 41.1426 115.43 40.699C115.897 40.2849 116.394 39.9299 116.964 39.6933C117.3 39.5454 117.68 39.4567 118.031 39.575C118.469 39.7377 118.718 40.2109 118.747 40.6842C118.791 41.394 118.469 42.311 117.958 42.8138C117.899 42.8729 117.826 42.9469 117.783 43.0208C117.753 43.0652 117.739 43.1244 117.739 43.1687C117.739 43.2131 117.739 43.2427 117.768 43.287C117.783 43.3166 117.812 43.3462 117.841 43.3462C118.703 43.0948 119.463 42.6659 120.033 42.03C120.734 41.2166 121.027 40.1074 120.442 39.1461C120.252 38.8503 120.004 38.5841 119.697 38.4214C119.244 38.1848 118.703 38.1996 118.206 38.2588C116.263 38.4806 114.538 39.4271 113.15 40.7877C112.595 41.3349 112.142 42.0152 112.069 42.7842C112.069 42.9173 112.113 43.1244 112.156 43.3018C111.85 43.361 111.543 43.4497 111.25 43.6272C110.461 44.0561 109.687 44.4702 108.927 44.899C108.167 45.3279 107.393 45.742 106.603 46.1709C106.443 46.304 106.267 46.4075 106.107 46.4815C105.946 46.5702 105.712 46.6737 105.42 46.792C105.551 46.4963 105.639 46.2892 105.697 46.1561C105.756 46.023 105.829 45.9195 105.917 45.8455C106.384 44.8695 106.852 43.923 107.363 42.9913C107.875 42.0595 108.342 41.1278 108.81 40.1961C109.351 39.1313 109.336 38.4362 108.752 38.0961C108.328 37.889 107.977 37.8595 107.685 38.0074C107.393 38.1552 107.115 38.3623 106.866 38.6137C106.15 39.2053 105.478 39.782 104.85 40.3292C104.221 40.8764 103.549 41.4384 102.833 41.9856C102.293 42.3701 101.752 42.7251 101.197 43.0652C100.656 43.4054 100.086 43.7455 99.5014 44.0856C99.2968 44.1744 99.0776 44.2187 98.8438 44.2187C98.61 44.2187 98.3323 44.2631 97.9962 44.3518C98.157 44.0117 98.2739 43.7159 98.3469 43.4645C98.4054 43.2131 98.4785 42.9765 98.5661 42.7694C98.9461 42.0891 99.326 41.4384 99.6914 40.8025C100.071 40.1665 100.422 39.4863 100.758 38.7616C100.919 38.5989 101.036 38.4067 101.109 38.2144C101.167 38.0221 101.24 37.8447 101.328 37.6672C100.992 37.3271 100.7 37.2087 100.451 37.3123C100.203 37.4158 99.969 37.5933 99.7644 37.8595C99.3845 38.4067 99.0191 38.9538 98.6684 39.5158C98.3177 40.063 97.967 40.6398 97.6309 41.2314C97.4263 41.6011 97.251 41.956 97.0902 42.3258C97.0318 42.3405 96.9879 42.3405 96.9295 42.3701C96.5787 42.518 96.1696 42.799 95.7019 43.2279C94.8252 44.1152 92.3994 46.0082 91.4787 46.866C90.6896 47.5906 89.8713 48.2857 89.0237 48.966C88.1907 49.6463 87.3432 50.297 86.5102 50.933C86.3495 51.14 86.1157 51.2879 85.8526 51.3766C85.575 51.4654 85.2389 51.6133 84.8151 51.8203C84.9758 50.7555 85.2096 49.8534 85.5019 49.0843C85.7942 48.3153 86.1303 47.5759 86.5102 46.866C87.9716 43.8047 88.1615 43.6568 89.8713 40.7581C91.5664 37.8595 91.9171 37.401 93.8022 34.4728C94.0068 34.0883 94.2552 33.6889 94.5183 33.2601C94.7959 32.8312 95.0736 32.4319 95.3658 32.0474C95.9065 31.0269 95.9065 30.3762 95.3658 30.0804C94.8982 29.829 94.3575 30.0952 93.7292 30.9086C93.5976 31.0417 93.4954 31.1896 93.4223 31.3523C93.3346 31.515 93.2615 31.6629 93.1739 31.796C92.0779 33.4523 91.0111 35.0643 89.9297 36.6615C88.863 38.244 89.126 37.3418 87.8254 38.8207C87.4893 39.1609 87.124 39.4419 86.7294 39.6785C86.3349 39.9151 85.8819 40.063 85.385 40.1518C84.8005 40.1518 84.1721 40.2997 83.4999 40.5954C82.5793 40.9356 81.7317 41.3645 80.9572 41.8969C80.1827 42.4293 79.4959 43.08 78.9113 43.8342C78.7798 44.13 78.6629 44.4258 78.5314 44.7216C78.3999 45.0174 78.3268 45.3131 78.283 45.6089C78.2391 46.1117 78.3853 46.5258 78.7214 46.8216C79.0575 47.1174 79.4959 47.2209 80.0366 47.1322C80.285 47.0878 80.5334 47.0139 80.7965 46.9104C81.0449 46.8068 81.2787 46.7033 81.4833 46.6294C82.8277 45.6533 84.1867 44.5885 85.5604 43.4497C85.7211 43.3166 85.8819 43.1983 86.028 43.0652C86.1741 42.9321 86.3495 42.7842 86.5687 42.6215C86.5687 42.8286 84.5813 47.2357 83.9968 48.5076C83.7922 48.9808 83.2661 50.9182 83.1784 51.4358C83.0469 52.2048 83.2515 52.7668 83.7776 53.1513C84.3036 53.5358 84.9174 53.595 85.6334 53.3436C85.9695 53.2548 86.291 53.1365 86.6125 52.9591C86.934 52.7816 87.2263 52.6041 87.5185 52.3823C89.5352 50.9773 91.4057 49.4541 93.1446 47.7681C94.8252 46.1561 95.0005 46.0674 96.5495 44.4554C96.5787 44.8695 96.7249 45.2392 97.0025 45.5054C97.4701 45.9491 98.1131 46.1117 98.9461 45.9786C99.1945 45.9786 99.4722 45.8751 99.7644 45.6681C100.685 45.3279 101.533 44.899 102.307 44.3666C103.082 43.8342 103.842 43.3018 104.601 42.7398C104.762 42.6067 104.952 42.4736 105.142 42.3258C105.332 42.1779 105.595 42.1039 105.931 42.1039C105.215 43.287 104.528 44.4702 103.856 45.6385C103.184 46.8068 102.497 47.9308 101.781 49.04C101.576 49.3358 101.357 49.6315 101.123 49.8977C100.89 50.1787 100.67 50.4449 100.466 50.6963C99.0045 52.0569 97.5578 53.4027 96.1257 54.7338C94.7082 56.0648 93.2762 57.4106 91.8587 58.7712C90.8942 59.7029 90.0028 60.6789 89.1844 61.6994C88.3661 62.7198 87.6647 63.8438 87.0801 65.0713C86.7879 65.5741 86.6417 66.0917 86.6417 66.5946C86.5541 67.1418 86.6856 67.5411 87.0217 67.8073C87.3578 68.0587 87.7523 68.1474 88.22 68.0587C88.5561 67.9699 88.863 67.8516 89.126 67.7037C89.4036 67.5558 89.6667 67.3784 89.9151 67.1565C90.675 66.6537 91.4057 66.0622 92.1071 65.3819C93.7876 63.6368 95.322 61.8473 96.7249 59.9691C98.1278 58.1057 99.4722 56.1535 100.773 54.1126C101.24 53.4767 101.679 52.8408 102.088 52.2048C102.512 51.5689 103.052 51.0217 103.725 50.5485C104.806 49.8238 105.902 49.1139 106.998 48.4188C108.079 47.7238 109.175 47.0139 110.271 46.2892C110.739 45.9934 111.192 45.742 111.66 45.5202C112.098 45.3279 112.507 45.0913 112.902 44.8547C113.413 45.6237 114.158 46.4519 115.181 47.2357C113.866 47.6498 109.321 49.4245 107.451 51.5837C106.983 52.1309 107.685 52.8112 108.357 52.9147C111.09 53.3436 113.311 51.9682 114.217 51.4802C115.108 51.0069 116.424 50.1492 117.476 48.5371C117.768 48.1083 118.25 47.8568 118.703 47.6054C119.375 47.2209 120.106 46.8808 120.895 46.5554C121.684 46.2448 122.488 45.9343 123.292 45.6681C124.081 45.3871 124.782 45.1209 125.367 44.8695C125.659 44.7807 125.951 44.6624 126.244 44.5145C126.273 44.4997 126.287 44.4702 126.317 44.4554C126.404 44.5885 126.448 44.7364 126.55 44.8695C126.755 45.1652 127.003 45.4462 127.267 45.6976C127.544 45.9491 127.822 46.2005 128.114 46.4667C128.246 46.6294 128.377 46.7773 128.523 46.8808C128.669 46.9843 128.801 47.1026 128.932 47.2357C127.471 47.709 125.557 49.1879 124.475 49.9717C123.394 50.7555 122.415 51.6133 121.509 52.5746C121.363 52.7224 121.129 53.7873 121.246 53.9499C121.363 54.1126 121.509 54.2013 121.684 54.2161C122.327 54.2753 122.912 54.2457 123.452 54.1422C124.519 53.8908 125.498 53.521 126.39 53.0182C127.281 52.5154 128.129 51.9238 128.947 51.2288C129.678 50.5928 130.175 49.9273 130.438 49.2027C130.686 48.7442 131.782 47.99 132.454 47.6202C133.126 47.2505 133.857 46.8956 134.646 46.5702C135.435 46.2596 136.239 45.9491 137.043 45.6829C137.832 45.4019 138.533 45.1357 139.118 44.8843C139.235 44.8547 139.366 44.7807 139.483 44.7364C139.498 45.0469 139.556 45.3279 139.673 45.5498C139.922 46.0378 140.316 46.4075 140.828 46.6589C141.354 46.9104 141.938 47.0582 142.581 47.1026C143.224 47.147 143.853 47.147 144.437 47.1026C146.118 47.0139 147.784 46.7625 149.464 46.3336C150.034 46.1857 150.575 45.9934 151.13 45.816C151.51 45.9639 151.934 46.0378 152.46 45.9639C152.708 45.9639 152.986 45.8603 153.278 45.6533C154.199 45.3131 155.046 44.8843 155.821 44.3518C156.595 43.8194 157.355 43.287 158.115 42.7251C158.276 42.592 158.466 42.4589 158.656 42.311C158.846 42.1631 159.109 42.0891 159.445 42.0891C158.729 43.2722 158.042 44.4554 157.37 45.6237C156.698 46.792 156.011 47.916 155.295 49.0252C155.09 49.321 154.871 49.6167 154.637 49.8829C154.403 50.1639 154.184 50.4301 153.98 50.6816C152.518 52.0421 151.071 53.388 149.639 54.719C148.222 56.05 146.79 57.3958 145.372 58.7564C144.408 59.6881 143.516 60.6642 142.698 61.6846C141.88 62.705 141.178 63.829 140.594 65.0565C140.302 65.5593 140.155 66.0769 140.155 66.5798C140.068 67.127 140.199 67.5263 140.535 67.7925C140.871 68.0439 141.266 68.1326 141.734 68.0439C142.07 67.9552 142.377 67.8368 142.64 67.689C142.917 67.5411 143.18 67.3636 143.429 67.1418C144.189 66.6389 144.919 66.0474 145.621 65.3671C147.301 63.622 148.836 61.8325 150.239 59.9543C151.641 58.0909 152.986 56.1387 154.286 54.0978C154.754 53.4619 155.192 52.826 155.602 52.19C156.025 51.5541 156.566 51.0069 157.238 50.5337C158.32 49.809 159.416 49.0991 160.497 48.404C161.593 47.709 162.674 46.9991 163.77 46.2744C164.238 45.9786 164.691 45.7272 165.159 45.5054C165.626 45.2983 166.065 45.0617 166.474 44.8103C167.015 44.4702 167.19 44.1152 166.971 43.7307L166.912 43.6863ZM143.122 41.8969C143.794 41.5567 144.393 41.3053 144.919 41.1278C145.445 40.9652 145.84 40.8912 146.118 40.906C146.395 40.9208 146.381 41.1278 146.088 41.5124C145.592 41.9856 144.832 42.3553 143.823 42.6215C142.815 42.9025 141.997 42.9913 141.368 42.9025C141.865 42.5624 142.45 42.2222 143.122 41.8821V41.8969ZM80.285 45.0174C80.6211 44.3371 81.1033 43.7751 81.7317 43.3314C82.3601 42.8877 83.0323 42.5624 83.7483 42.3405C83.12 43.4497 81.9655 44.3371 80.2996 45.0174H80.285ZM94.9274 59.1113C94.2991 59.9395 93.6415 60.7529 92.9547 61.5663C92.2678 62.3649 91.5664 63.0896 90.8796 63.7255C90.1928 64.3614 89.6375 64.8051 89.2137 65.0565C89.3744 64.6276 89.7105 64.0804 90.222 63.4001C90.7188 62.7198 91.3034 61.9952 91.9756 61.2409C92.6478 60.4719 93.3638 59.7177 94.1383 58.9486C94.9128 58.1796 95.6581 57.5141 96.3742 56.9077C96.038 57.5437 95.5558 58.2683 94.9274 59.0965V59.1113ZM111.733 51.3323C111.294 51.5541 109.979 52.0274 109.833 51.6281C109.76 51.4358 110.096 51.1696 110.198 51.0661C110.505 50.7703 110.841 50.5189 111.192 50.2823C112.025 49.7055 112.872 49.3358 113.822 49.0252C114.436 48.8329 115.094 48.6259 115.737 48.6702C114.641 49.6611 113.457 50.4745 111.733 51.3323ZM126.784 51.1252C126.127 51.6872 125.528 52.1309 125.001 52.4415C124.475 52.752 124.052 52.9147 123.759 52.8999C123.467 52.8999 123.438 52.6189 123.672 52.0717C124.139 51.3027 124.87 50.6668 125.864 50.1935C126.857 49.7203 127.763 49.4393 128.552 49.3505C128.026 49.9569 127.442 50.5485 126.784 51.1104V51.1252ZM148.441 59.1113C147.813 59.9395 147.155 60.7529 146.468 61.5663C145.781 62.3649 145.08 63.0896 144.393 63.7255C143.706 64.3614 143.151 64.8051 142.727 65.0565C142.888 64.6276 143.224 64.0804 143.736 63.4001C144.232 62.7198 144.832 61.9952 145.489 61.2409C146.161 60.4719 146.877 59.7177 147.652 58.9486C148.426 58.1796 149.172 57.5141 149.888 56.9077C149.552 57.5437 149.069 58.2683 148.441 59.0965V59.1113Z" fill="#012436"/>
<path d="M76.1935 35.9666C75.419 34.5765 74.3084 33.4229 72.9055 32.5652C72.8763 32.5504 72.6279 32.4025 72.3649 32.2694C72.3064 32.2398 72.2479 32.2102 72.1895 32.1806C73.5193 31.8109 74.2646 32.787 74.6007 33.2159C74.7322 33.3933 74.7906 33.4673 74.9076 33.4673C75.0245 33.4673 75.1414 33.4081 75.2144 33.3194C75.2875 33.2307 75.346 33.0532 75.2437 32.7426C75.1121 32.3285 74.703 31.6926 74.1477 31.2785C73.417 30.7313 72.3064 30.8496 70.6113 31.0271C70.3044 31.0567 69.9537 31.1158 69.5299 31.1898C68.8577 31.0123 68.127 30.8792 67.3817 30.7757C66.6365 30.6869 65.862 30.6426 65.0582 30.6426C63.1147 30.6426 61.5218 31.1602 60.3382 32.1806C59.2129 33.1715 58.6284 34.3842 58.6284 35.7744C58.6284 36.6174 58.8476 37.3716 59.3006 38.0075C58.5407 39.1463 57.927 40.3738 57.5032 41.6308C57.0356 43.0062 56.8018 44.3668 56.8018 45.6978C56.8018 47.5169 57.2255 49.1141 58.0731 50.4451C58.8915 51.7465 60.0021 52.6043 61.3903 53.0036C62.0041 53.1811 62.7055 53.2698 63.48 53.2698C65.6574 53.2698 67.9224 52.693 70.2021 51.5543C72.774 50.2528 74.703 48.5669 75.9597 46.5112C76.9242 44.8992 77.421 43.021 77.421 40.9358C77.421 39.1315 76.9972 37.4603 76.1789 35.9814L76.1935 35.9666ZM63.6554 33.5856C62.5301 34.3546 61.478 35.2863 60.5427 36.3659C60.4843 36.0997 60.4551 35.8335 60.4551 35.5673C60.4551 33.4969 62.0333 32.3581 65.1751 32.2102C65.3213 32.1954 65.4674 32.1806 65.5989 32.1806H66.0227C66.0227 32.1806 66.125 32.1806 66.1688 32.1806C65.2774 32.5652 64.4299 33.0384 63.6408 33.5708L63.6554 33.5856ZM60.6012 39.1167L60.6597 39.1463C60.9665 39.3237 61.3026 39.4864 61.5072 39.3237C61.668 39.1906 61.6826 39.0723 61.668 38.9244C61.668 38.747 61.5511 38.5695 61.4488 38.4364C61.4195 38.392 61.4049 38.3625 61.3757 38.3329C61.3026 38.1998 61.2296 38.0667 61.1565 37.9484C62.2963 36.3216 63.67 35.0349 65.2482 34.1328C65.9935 33.7187 66.7388 33.3786 67.484 33.1419C68.2001 32.9053 68.96 32.7574 69.676 32.713C71.5611 33.2602 73.0371 34.2067 74.0746 35.523C75.0683 36.8244 75.5798 38.3772 75.5798 40.1076C75.5798 41.8379 75.0245 43.8196 73.9139 45.7422C73.0371 47.2655 71.4881 48.6408 69.2961 49.8388C67.1041 51.0219 65.0582 51.6282 63.2316 51.6282C61.8141 51.6282 60.6597 51.1698 59.8121 50.2824C58.8915 49.2916 58.4092 47.8718 58.4092 46.0232C58.4092 43.6717 59.096 41.3351 60.4551 39.0575L60.572 39.1315L60.6012 39.1167Z" fill="#012436"/>
<path d="M26.7126 39.1913C23.9507 41.6019 23.3662 42.859 24.7691 44.5745C25.0029 44.8703 25.2659 45.8612 24.3891 46.3049C24.3307 46.3492 24.0969 46.4232 23.8923 46.3788C23.7169 46.3344 23.6877 46.083 23.8631 46.0091C23.9946 45.9647 24.0676 45.876 24.1115 45.8316C24.3161 45.6246 24.3161 45.1661 23.41 44.6041C21.3788 43.3175 20.9404 41.5132 21.9195 39.3836C22.5917 37.9195 22.1387 36.1744 20.1221 35.3166C21.4665 35.4645 22.8401 35.1983 24.6376 35.1983C25.602 35.1983 26.698 34.9912 27.8232 34.5771C27.8525 34.5771 27.8817 34.6215 27.9109 34.6215C28.437 35.4497 28.7 37.4314 26.7126 39.1618V39.1913Z" fill="#012436"/>
<path d="M18.4267 34.9319C18.1783 35.8932 16.98 37.4165 14.4373 37.2242C10.7986 36.958 9.51266 37.4165 9.29346 39.6349C9.26423 40.0046 8.75277 40.8919 7.80291 40.5962C7.74446 40.5666 7.52526 40.463 7.40835 40.2856C7.30606 40.1377 7.48142 39.9306 7.64217 40.0046C7.77369 40.049 7.89059 40.0637 7.93443 40.0637C8.2267 40.0637 8.5628 39.7384 8.31437 38.6884C7.77369 36.3369 8.73816 34.7249 10.9009 33.9115C12.1284 33.453 12.9614 32.3291 12.7568 30.791C14.0281 32.6249 15.9571 34.1333 18.4267 34.9172V34.9319Z" fill="#012436"/>
<path d="M11.5005 28.2913C10.6237 28.7794 8.76782 28.9421 7.11652 27.0343C4.73457 24.2391 3.49244 23.6328 1.79731 25.0673C1.51966 25.3039 0.525958 25.5554 0.0875606 24.6828C0.043721 24.6237 -0.0293452 24.387 0.0144945 24.18C0.0583342 23.9877 0.306759 23.9729 0.379825 24.1356C0.423665 24.2687 0.511344 24.3574 0.555184 24.4018C0.759769 24.6089 1.21278 24.6089 1.76808 23.6919C3.03943 21.6363 4.83686 21.1926 6.92655 22.1687C8.38788 22.8638 10.1561 22.3757 10.989 20.2461C10.8721 20.9708 10.8721 21.7989 11.0329 22.7454C11.3251 24.4758 11.0621 26.6941 11.5005 28.2913Z" fill="#012436"/>
<path d="M16.1473 12.7339C15.6212 13.1332 15.212 13.5916 14.9344 14.0501C14.1014 15.4994 12.3625 16.6973 11.4564 18.6495C11.4272 18.6495 11.4126 18.6791 11.398 18.6791C10.4481 18.4572 8.88451 17.2593 9.07448 14.6121C9.32291 10.9296 8.8699 9.6134 6.69253 9.40635C6.31258 9.36198 5.43579 8.84437 5.74267 7.89787C5.74267 7.83871 5.85957 7.61688 6.03493 7.49856C6.18106 7.39504 6.38565 7.57251 6.31258 7.73519C6.26874 7.8535 6.25413 7.9866 6.25413 8.03097C6.25413 8.32675 6.57562 8.65211 7.62777 8.41548C9.93666 7.86829 11.5295 8.82958 12.3332 11.0331C12.8593 12.4677 14.2622 13.3698 16.1473 12.7339Z" fill="#012436"/>
<path d="M24.6964 10.4559C22.2852 10.3228 19.8009 10.8257 17.9158 11.6834C17.419 10.7961 17.2144 8.8883 19.1287 7.21714C21.8906 4.79174 22.4898 3.53467 21.0723 1.83393C20.8385 1.53815 20.5901 0.532492 21.4668 0.088821C21.5253 0.059243 21.7445 -0.0294913 21.9491 0.0296649C22.1391 0.074032 22.1537 0.325446 21.9929 0.399391C21.8614 0.443758 21.7737 0.532492 21.7299 0.576859C21.5253 0.783906 21.5253 1.24237 22.4313 1.80435C24.4626 3.07621 24.901 4.89526 23.9365 7.02488C23.3958 8.17842 23.5711 9.53902 24.6964 10.4559Z" fill="#012436"/>
</g>
<defs>
<clipPath id="clip0_4056_4811">
<rect width="167" height="68" fill="white"/>
</clipPath>
</defs>
</svg>
