<svg width="190" height="190" viewBox="0 0 190 190" fill="none" xmlns="http://www.w3.org/2000/svg">
<g clip-path="url(#clip0_4068_11740)">
<path d="M189.2 82.67C184.02 117.32 154.14 143.89 118.05 143.89C78.32 143.89 46.11 111.68 46.11 71.95C46.12 35.85 72.69 5.97 107.34 0.8C103.3 0.28 99.19 0 95 0C42.53 0 0 42.53 0 95C0 147.47 42.53 190 95 190C147.47 190 190 147.47 190 95C190 90.82 189.73 86.7 189.2 82.66V82.67Z" fill="#EFF8FF"/>
<path d="M110 61.7102L88.4095 54.3602L104.72 68.8902L92.9495 70.8502L105.42 73.8402L88.2695 88.8602L109 82.0002L104.81 93.1702L113.63 83.8702L118.07 106.24L122.5 84.8502L130.08 94.0602L126.43 81.7702L148.02 89.1102L131.71 74.5802L143.48 72.6302L131.01 69.6402L148.16 54.6102L127.43 61.4702L131.62 50.3002L122.79 59.6102L118.36 37.2402L113.93 58.6202L106.35 49.4102L110 61.7102Z" fill="#EFF8FF"/>
</g>
<defs>
<clipPath id="clip0_4068_11740">
<rect width="190" height="190" fill="white"/>
</clipPath>
</defs>
</svg>
