<svg width="274" height="274" viewBox="0 0 274 274" fill="none" xmlns="http://www.w3.org/2000/svg">
<g clip-path="url(#clip0_4054_10580)">
<path d="M273.536 133.758C270.63 127.533 263.648 129.046 261.619 130.628C249.444 140.001 241.018 135.547 225.095 115.736C218.113 107.034 210.306 104.179 203.944 104.042C197.375 103.904 193.712 96.3202 197.41 90.9031C199.886 87.2573 203.6 84.6262 207.985 83.216C223.307 78.2633 230.374 67.4292 227.21 51.1092C225.8 43.8521 228.156 41.7197 230.151 41.7369C230.546 41.7369 231.423 41.84 232.214 42.2356C233.349 42.8031 234.604 41.4789 233.934 40.3783C233.143 39.0713 231.698 38.3318 231.251 38.1599C224.803 35.8211 220.934 41.8228 220.607 44.368C218.629 59.6045 209.533 62.4077 184.255 59.6561C173.284 58.4695 165.769 61.8917 161.178 66.2254C156.518 70.6106 148.676 68.5642 147.249 62.3389C146.217 57.8161 146.957 53.0869 149.158 48.7704C156.483 34.4453 153.835 21.7711 140.061 12.4847C133.922 8.34026 134.077 5.15881 135.504 3.76585C135.779 3.4907 136.484 2.9404 137.327 2.66524C138.531 2.26971 138.462 0.429632 137.224 0.137282C135.745 -0.223855 134.197 0.257661 133.75 0.464026C127.525 3.37032 129.038 10.3523 130.621 12.3816C139.992 24.557 135.539 32.9664 115.729 48.908C107.028 55.89 104.156 63.7318 104.036 70.0947C103.915 76.3716 96.7617 80.3097 91.431 76.9563C87.5275 74.48 84.6902 70.6278 83.2113 66.019C78.2589 50.6965 67.4255 43.6285 51.1065 46.7928C43.8498 48.2029 41.7176 45.8469 41.7347 43.8521C41.7347 43.4566 41.8379 42.5795 42.2334 41.7884C42.8009 40.6534 41.4768 39.3981 40.3763 40.0687C39.0694 40.8598 38.33 42.3044 38.158 42.7687C35.8193 49.2004 41.8207 53.0697 44.3657 53.3964C59.6013 55.3913 62.4043 64.4713 59.6529 89.7509C58.4664 100.723 61.8884 108.238 66.2218 112.829C70.6067 117.49 68.5604 125.332 62.3183 126.759C57.8129 127.791 53.0669 127.051 48.7679 124.85C34.4437 117.524 21.7703 120.172 12.4845 133.947C8.34024 140.087 5.159 139.932 3.76612 138.504C3.49099 138.229 2.94072 137.524 2.66558 136.682C2.27008 135.478 0.430113 135.547 0.137782 136.785C-0.240528 138.264 0.258154 139.811 0.464505 140.259C3.37062 146.484 10.3522 144.971 12.3813 143.388C24.556 134.016 32.9648 138.47 48.9055 158.281C55.887 166.983 63.7283 169.855 70.0908 169.975C76.3674 170.095 80.3052 177.249 76.952 182.58C74.4758 186.484 70.6067 189.322 66.0154 190.801C50.6938 195.753 43.6263 206.587 46.7904 222.907C48.2004 230.164 45.8446 232.314 43.8498 232.28C43.4543 232.28 42.5773 232.177 41.7863 231.781C40.6514 231.214 39.3961 232.538 40.0667 233.638C40.8578 234.945 42.285 235.685 42.7493 235.857C49.1978 238.213 53.0669 232.211 53.3936 229.649C55.3711 214.412 64.4678 211.609 89.7458 214.36C100.717 215.547 108.231 212.142 112.823 207.791C117.483 203.406 125.324 205.452 126.751 211.695C127.783 216.201 127.044 220.93 124.843 225.246C117.517 239.571 120.165 252.245 133.939 261.532C140.078 265.676 139.924 268.858 138.496 270.251C138.221 270.526 137.516 271.076 136.673 271.351C135.47 271.747 135.539 273.587 136.777 273.879C138.256 274.24 139.803 273.759 140.25 273.553C146.475 270.646 144.962 263.664 143.38 261.635C134.008 249.46 138.462 241.05 158.272 225.109C166.973 218.127 169.844 210.285 169.965 203.922C170.085 197.645 177.239 193.724 182.569 197.06C186.473 199.537 189.31 203.406 190.789 207.998C195.742 223.32 206.575 230.388 222.894 227.224C230.151 225.814 232.283 228.17 232.266 230.164C232.266 230.56 232.163 231.437 231.767 232.228C231.2 233.363 232.524 234.619 233.624 233.948C234.931 233.157 235.67 231.729 235.842 231.265C238.181 224.816 232.18 220.947 229.635 220.62C214.399 218.642 211.596 209.545 214.348 184.266C215.534 173.294 212.112 165.779 207.779 161.187C203.394 156.527 205.44 148.685 211.682 147.258C216.187 146.226 220.916 146.965 225.233 149.167C239.557 156.493 252.23 153.844 261.516 140.069C265.66 133.93 268.841 134.085 270.234 135.512C270.509 135.805 271.06 136.492 271.335 137.335C271.73 138.539 273.57 138.47 273.863 137.232C274.224 135.753 273.742 134.205 273.536 133.758Z" fill="#FFF7ED"/>
<path d="M178.992 30.1631C182.63 30.1631 185.578 27.2143 185.578 23.5767C185.578 19.9391 182.63 16.9902 178.992 16.9902C175.355 16.9902 172.406 19.9391 172.406 23.5767C172.406 27.2143 175.355 30.1631 178.992 30.1631Z" fill="#FFF7ED"/>
<path d="M248.67 95.7354C252.307 95.7354 255.256 92.7866 255.256 89.149C255.256 85.5114 252.307 82.5625 248.67 82.5625C245.033 82.5625 242.084 85.5114 242.084 89.149C242.084 92.7866 245.033 95.7354 248.67 95.7354Z" fill="#FFF7ED"/>
<path d="M248.67 192.331C252.307 192.331 255.256 189.382 255.256 185.745C255.256 182.107 252.307 179.158 248.67 179.158C245.033 179.158 242.084 182.107 242.084 185.745C242.084 189.382 245.033 192.331 248.67 192.331Z" fill="#FFF7ED"/>
<path d="M172.406 250.285C176.044 250.285 178.992 247.336 178.992 243.699C178.992 240.061 176.044 237.112 172.406 237.112C168.769 237.112 165.82 240.061 165.82 243.699C165.82 247.336 168.769 250.285 172.406 250.285Z" fill="#FFF7ED"/>
<path d="M91.9464 246.192C95.5838 246.192 98.5324 243.244 98.5324 239.606C98.5324 235.968 95.5838 233.02 91.9464 233.02C88.309 233.02 85.3604 235.968 85.3604 239.606C85.3604 243.244 88.309 246.192 91.9464 246.192Z" fill="#FFF7ED"/>
<path d="M21.1339 185.745C24.7713 185.745 27.7199 182.796 27.7199 179.159C27.7199 175.521 24.7713 172.572 21.1339 172.572C17.4965 172.572 14.5479 175.521 14.5479 179.159C14.5479 182.796 17.4965 185.745 21.1339 185.745Z" fill="#FFF7ED"/>
<path d="M26.6876 82.5626C30.325 82.5626 33.2736 79.6137 33.2736 75.9761C33.2736 72.3385 30.325 69.3896 26.6876 69.3896C23.0502 69.3896 20.1016 72.3385 20.1016 75.9761C20.1016 79.6137 23.0502 82.5626 26.6876 82.5626Z" fill="#FFF7ED"/>
<path d="M95.4542 21.0831C99.0916 21.0831 102.04 18.1342 102.04 14.4966C102.04 10.859 99.0916 7.91016 95.4542 7.91016C91.8168 7.91016 88.8682 10.859 88.8682 14.4966C88.8682 18.1342 91.8168 21.0831 95.4542 21.0831Z" fill="#FFF7ED"/>
</g>
<defs>
<clipPath id="clip0_4054_10580">
<rect width="274" height="274" fill="white"/>
</clipPath>
</defs>
</svg>
